<mxfile modified="2021-12-12T11:36:54.734Z" host="app.diagrams.net" agent="5.0 (Macintosh; Intel Mac OS X 10_15_7) AppleWebKit/537.36 (KHTML, like Gecko) Chrome/96.0.4664.93 Safari/537.36" etag="Z36PhqlTcB4Kyfak6Drh" version="15.9.4" type="github">
  <diagram id="Ht1M8jgEwFfnCIfOTk4-" name="Page-1">
    <mxGraphModel dx="3586" dy="2484" grid="1" gridSize="10" guides="1" tooltips="1" connect="1" arrows="1" fold="1" page="1" pageScale="1" pageWidth="1169" pageHeight="827" math="0" shadow="0">
      <root>
        <mxCell id="0" />
        <mxCell id="1" parent="0" />
        <mxCell id="msttldhm7g2-u0YJvrAc-2" value="AWS Cloud" style="points=[[0,0],[0.25,0],[0.5,0],[0.75,0],[1,0],[1,0.25],[1,0.5],[1,0.75],[1,1],[0.75,1],[0.5,1],[0.25,1],[0,1],[0,0.75],[0,0.5],[0,0.25]];outlineConnect=0;gradientColor=none;html=1;whiteSpace=wrap;fontSize=12;fontStyle=0;shape=mxgraph.aws4.group;grIcon=mxgraph.aws4.group_aws_cloud_alt;strokeColor=#232F3E;fillColor=none;verticalAlign=top;align=left;spacingLeft=30;fontColor=#232F3E;dashed=0;" vertex="1" parent="1">
          <mxGeometry x="-10" y="-70" width="2190" height="1010" as="geometry" />
        </mxCell>
        <mxCell id="msttldhm7g2-u0YJvrAc-3" value="VPC" style="points=[[0,0],[0.25,0],[0.5,0],[0.75,0],[1,0],[1,0.25],[1,0.5],[1,0.75],[1,1],[0.75,1],[0.5,1],[0.25,1],[0,1],[0,0.75],[0,0.5],[0,0.25]];outlineConnect=0;gradientColor=none;html=1;whiteSpace=wrap;fontSize=12;fontStyle=0;shape=mxgraph.aws4.group;grIcon=mxgraph.aws4.group_vpc;strokeColor=#248814;fillColor=none;verticalAlign=top;align=left;spacingLeft=30;fontColor=#AAB7B8;dashed=0;" vertex="1" parent="1">
          <mxGeometry x="40" y="-20" width="2110" height="940" as="geometry" />
        </mxCell>
        <mxCell id="msttldhm7g2-u0YJvrAc-107" value=" Security group&#xa; test_alb_security_group" style="fillColor=none;strokeColor=#DD3522;verticalAlign=top;fontStyle=0;fontColor=#DD3522;labelBackgroundColor=none;align=left;" vertex="1" parent="1">
          <mxGeometry x="125" y="290.5" width="375" height="399.5" as="geometry" />
        </mxCell>
        <mxCell id="msttldhm7g2-u0YJvrAc-28" value="test_private_subnet2&lt;br&gt;10.0.21.0/24" style="points=[[0,0],[0.25,0],[0.5,0],[0.75,0],[1,0],[1,0.25],[1,0.5],[1,0.75],[1,1],[0.75,1],[0.5,1],[0.25,1],[0,1],[0,0.75],[0,0.5],[0,0.25]];outlineConnect=0;gradientColor=none;html=1;whiteSpace=wrap;fontSize=12;fontStyle=0;shape=mxgraph.aws4.group;grIcon=mxgraph.aws4.group_security_group;grStroke=0;strokeColor=#147EBA;fillColor=#E6F2F8;verticalAlign=top;align=left;spacingLeft=30;fontColor=#147EBA;dashed=0;labelBackgroundColor=none;" vertex="1" parent="1">
          <mxGeometry x="1401" y="407" width="709" height="183" as="geometry" />
        </mxCell>
        <mxCell id="msttldhm7g2-u0YJvrAc-27" value="test_private_subnet1&lt;br&gt;10.0.20.0/24" style="points=[[0,0],[0.25,0],[0.5,0],[0.75,0],[1,0],[1,0.25],[1,0.5],[1,0.75],[1,1],[0.75,1],[0.5,1],[0.25,1],[0,1],[0,0.75],[0,0.5],[0,0.25]];outlineConnect=0;gradientColor=none;html=1;whiteSpace=wrap;fontSize=12;fontStyle=0;shape=mxgraph.aws4.group;grIcon=mxgraph.aws4.group_security_group;grStroke=0;strokeColor=#147EBA;fillColor=#E6F2F8;verticalAlign=top;align=left;spacingLeft=30;fontColor=#147EBA;dashed=0;labelBackgroundColor=none;" vertex="1" parent="1">
          <mxGeometry x="1401" y="100" width="709" height="296" as="geometry" />
        </mxCell>
        <mxCell id="msttldhm7g2-u0YJvrAc-100" value=" Security group" style="fillColor=none;strokeColor=#DD3522;verticalAlign=top;fontStyle=0;fontColor=#DD3522;labelBackgroundColor=none;align=left;" vertex="1" parent="1">
          <mxGeometry x="1650" y="230" width="400" height="300" as="geometry" />
        </mxCell>
        <mxCell id="msttldhm7g2-u0YJvrAc-4" value="test_public_subnet&lt;br&gt;10.0.10.0/24" style="points=[[0,0],[0.25,0],[0.5,0],[0.75,0],[1,0],[1,0.25],[1,0.5],[1,0.75],[1,1],[0.75,1],[0.5,1],[0.25,1],[0,1],[0,0.75],[0,0.5],[0,0.25]];outlineConnect=0;gradientColor=none;html=1;whiteSpace=wrap;fontSize=12;fontStyle=0;shape=mxgraph.aws4.group;grIcon=mxgraph.aws4.group_security_group;grStroke=0;strokeColor=#248814;fillColor=#E9F3E6;verticalAlign=top;align=left;spacingLeft=30;fontColor=#248814;dashed=0;" vertex="1" parent="1">
          <mxGeometry x="578" y="97" width="773" height="500" as="geometry" />
        </mxCell>
        <mxCell id="msttldhm7g2-u0YJvrAc-78" value=" Security group&#xa; test_security" style="fillColor=none;strokeColor=#DD3522;verticalAlign=top;fontStyle=0;fontColor=#DD3522;labelBackgroundColor=none;align=left;" vertex="1" parent="1">
          <mxGeometry x="588" y="286" width="743" height="291" as="geometry" />
        </mxCell>
        <mxCell id="msttldhm7g2-u0YJvrAc-5" value="ec2_for_deploy&lt;br&gt;10.0.10.145/24" style="points=[[0,0],[0.25,0],[0.5,0],[0.75,0],[1,0],[1,0.25],[1,0.5],[1,0.75],[1,1],[0.75,1],[0.5,1],[0.25,1],[0,1],[0,0.75],[0,0.5],[0,0.25]];outlineConnect=0;gradientColor=none;html=1;whiteSpace=wrap;fontSize=12;fontStyle=0;shape=mxgraph.aws4.group;grIcon=mxgraph.aws4.group_ec2_instance_contents;strokeColor=#D86613;fillColor=none;verticalAlign=top;align=left;spacingLeft=30;fontColor=#D86613;dashed=0;" vertex="1" parent="1">
          <mxGeometry x="801" y="318" width="510" height="240" as="geometry" />
        </mxCell>
        <mxCell id="msttldhm7g2-u0YJvrAc-14" value="" style="rounded=0;whiteSpace=wrap;html=1;labelBackgroundColor=none;fillColor=none;strokeColor=#3399FF;" vertex="1" parent="1">
          <mxGeometry x="811" y="360" width="490" height="188" as="geometry" />
        </mxCell>
        <mxCell id="msttldhm7g2-u0YJvrAc-64" value="" style="rounded=0;whiteSpace=wrap;html=1;labelBackgroundColor=none;strokeColor=#3399FF;fillColor=none;" vertex="1" parent="1">
          <mxGeometry x="1381" y="66" width="749" height="534" as="geometry" />
        </mxCell>
        <mxCell id="msttldhm7g2-u0YJvrAc-12" value="" style="shape=image;verticalLabelPosition=bottom;labelBackgroundColor=#ffffff;verticalAlign=top;aspect=fixed;imageAspect=0;image=data:image/png,iVBORw0KGgoAAAANSUhEUgAAAIAAAACACAYAAADDPmHLAAAABGdBTUEAALGPC/xhBQAAACBjSFJNAAB6JgAAgIQAAPoAAACA6AAAdTAAAOpgAAA6mAAAF3CculE8AAAABmJLR0QA/wD/AP+gvaeTAAAACXBIWXMAADsOAAA7DgHMtqGDAAAAB3RJTUUH5AYMCjEwaYQL5AAAGbJJREFUeNrtnXmcXFWVx7/nVXWnOyEJ6QRDGAhh31FElCQiCm64oB8dBkdlT4eACB9FBUUZxIVRBNmRVIMoywgKOLhvKEuqA0YkrA5hCwHS2dNJ71X1zvxx7ut61anuWrq6qtP9fp9Pfbq7+r13373n3HPPPduFCBEiRIgQIUKECBEijC9IrV+gIp1IJAHiwEz3U0scgzSwBkhr87xad6eqiNf6BSqImcDPgd0wBiiGuYPrVgEnAK/XuhPVxlhigBjwb+7Ths3qoZhAXf93Bnx3/7jDWGIAMIK3AZ8EXqMwA+wK3MMYWQrLwVhkgAwmylcNtZ47vSG4ftwygFfrF4hQW0QMMM4RMcA4R8QA4xwRA4xzRAwwzhExwDjHiNsBhmmnLxaKWQBjmAUwQpGoliEosNPvysgxQMBkbRgzqCSShSyBo4Zp3ESZChwC/APoroZjqloMENjpd6tCWzMx824pvoBVVRqHvHDErwPOBC4AbgQul0RruyaXwI+/NGJtV9sU7AOrGZo4YcJA6Y6d7QqSSOL5Hr7nHw98FdgRY4LdQS+QefPeYP4j6IJ3jkj71WQAwXzuJzC0oybspKGI6/Pds105g3zP3wu4FCM+GF0+A0wDzkblVUm0os1zK952tRmgoKNmgJOGQtdX6J6aMIAkkiiIwKeBA/KM14eBG0GaQd8gkYQK6wXRNrDGENOLPsvgTHgccDkwZSS4NGKAWuHmB4PfDgV2H+JKAf4dOBcl5iRXxRAxQI0gfh2IL8AxwIQCl9cD5yAcBf3LV0UQMUAtod4UoFjNbiZwEWYrqBgiBqgtpmCELRbzMcUQEksq8gIRA9QWU4BJJVzfCCwAJkuFNi4RA9QWjdj6XgoOZdstY9koyQ5QpmNnVNncB3m/OMX5D/qHgsokk8QofRJOBz4iwmO6OAkLh2cXKMcQVKpjp1RHTZhhKOL6StwT9KmQyTmAYJbG4SaTpMkar0rB21SZIIJPIjkF2AFbSupcv3qADmArKp2C+v4gjFIOAwzHsVOMoyZgmDe5v0tx7JR7j+f6VAqU4SeTdAF9Zdy3D3A2cARwIGZCbiArlVMYA7Qh+rDCQ5JIPo35YfywxBqOKbgYx04wUKPdUZOhNKfTrAq1u8V9StkJAOwFXEFhabUPcBTwReAV4A7gLkkkX8QxQrkMUKxjJxi0Uhw1w3XslHtPqX2phBq+GXNF71PifaW23QDsD3wTOBW4DvQOSSTXDYcBysnAodA9NXIGlXPPMBlAQDKdqPcAZg2sBjxMelwKsgL4TbQNrBG0eS6oB/AItl5XE08CrRDZAUYDngWeq2J7HcA1wEYlYoAaQ0FkHdBC9Wwkv3YfaJ4XMUAtoc3zQRXgV8Dfq9DkP4GLgS51qk/EAKMAWiergZ8wslJgBRZTsEIBmo8Cxl59gO0HiUeId00jQ/t0SekJwJcYGXoosBw4N1Zf/0imtxea5/f/M2KAKkNaWhEQVW3KTGyfC5yPuXnrRqC5Tmy9v1gymeczfSl04fycCyIGqAIkkQTBQ2lCdU+FozHD00HAxBFoshN4Arge+F+gy5cY5IkqjjvjxgTMJl7IuFENR00tnEHl3KPAdIEuSSS9PBfGMAvcdGA3lHnAscAeWFRPJWM8fWx7txoj/B3Aw0psM/h5CR9AHAPMB35M4di0SiRtFLqnGm1U4h4feBlz5uS7J47N7slkPXXDQRfwL9euAr0Y0dcBTwFJ9z7rRDMpX+qg+ciCDw2WgF2APSndu1WqB62ce6rRRjn3xIB9y2inXDwMnIIRXjFmTQOpWIPnpzt9WGRm7FKSLwMGmMQ4rZO3naAbk9BrQLbJEBrO3jFYu0ZCEYlQOTwLPABUPD3Mc8tXobU/Qu2QBu7E1vqKw3Mrxkjk7EeoDP4PuAtgJOoFeI70qVr3MkJeZIA7G7f0vD5S6auee3BnrXsaIS+eBX7SPaUBXTAy1UICJbCT8qJTI4wcUsDNov7rI5m9HjDAJqJlYLThMeB2FW9ECkMECBhgI7bXjDA6sAWL+t2gI1y7IswAW2rd6wj9uB/4HTCkHb8SCC8BbbXudQQAXgAuA3qqUSbOAxBkK7C01j2PQDdwRUN64rPVatBTURT1MWfDaEzeHE+4H7itJ941IkaffPBY0B8h8hywvtYjMI7xFBaw2amZ6vnlnA6ggL7qXqLW8DGdpJ3xY6JeD1yE8jwAi95RtYbNHSwCPh0IP8PSlGrlGt4C/BT4I2b9OA6roTelRu9TDfQCV4H8Fqm8t68QPMDMjLbdXIKFFdUCGeBa4FHgv4A9VOUc4DuMXd3EB/4H5CogU23iw8C8ANGXMEWkFliFKaKXAIcD+4joYcBfgTdq9E4jjT8AXwXtrAXxIcQAOn0DqKSAW4C1NXiXHkwOTXZ/n4lV7dgJi4cba2gFzkNokxp6YbIS4BMfDX5bDtxeg3eZhZU6+RXZuLfHsCJKo7m4RDn4J7AIWIGCv6h2B1ZvY2h2UcL7YwkFe1X5fZZhW6EZmILahhVHnD+ch44yLMdKvS2zFK3anlaehwFaaVh1JD27tZ4FXEXpZcyGi7XAM5gEOACb/WPlaNfHgWaBx32oOfFhkIF1UmAalrD40VIeGCEvFNthnQ36lOKNuJOnWORPDRMB1U2YOD6Qyi0FPmbv3oxp9iuA/TCtf6wig3n2zhN4ScWDBaOD+DCEaJVEkngG0jE+BdyEGWPaMTtBHDMWCVlFUt0ngwWX9GLaexdm2VuDZbY8hdXjWa/yj82ih38EC3oci6Hp3ZgUvRhYJ6r4C0eXOjPk2upOtKgXuBD4BlZF61ysmEHc3R9+hmKzPGCCPvczragZc0KpyaGTsu4gKII8drAGuBzhBrQ6J4CVg4LKlSPSZOAHmPb6LLBIhSWiwwtVlpZkYO0/GrgXaKr1gFQAPnbs24WgfwPxRyvxoYgKIe7ltwJfwxIUDgRuE+WjgsQk0Vp246FI1yS2zPi1HpBhYitW7+eTMZ8HVEY38aHY7VViKWK0mYHFqn0GW9f/C+VWhK5hSQKTMjtjBqhjaz0oZSCD6TbfxUzpvaOd8AGKqxHUfKQracd64Dys8MAOwBUIVwK77nRnF94wpAFm9PkS1S2ZVgm0YWXXjo9J+udsR8SHMgwsbrY2YqbMCzFb/WPA11EeQugrZwCkJWkLgHAsJkbn1HpwCqAd+DPwfczAM5yy8TVDWRY2xwQx4L1YAONb3IDcAlwvVqhA/RIHRBJJVARR/SBwA1ZNY7RhC+bI+SHwENA9Gky65aJsE6u0tKIbfKRJdsfs9SdgW7rnMRPy/aCrAdXm4ve+kliCah8iE47G4gMOqfUgYXuVjRjhbwAeVujwgFKZfLRh2DZ2Jw3qMWlwIfAOTDo8A/wIi+5ZqappijSCSCKJqiIiB2KHJr6f2hS0SmO2jweAFlSfUI9uzxf8YZ7UMVpQGSdLIklT0xQ2bdwyDTvk8Exs5saxAbwP+CXwnCjrfY8MBZId5ZZWSPsg0oQpnmdSel39cuADGzBl9D5Mkr2qIulC77w9oqJeNlvDEVE71warTf8WbGnoBl4E/oTNqBeAtaK0+/V9Gbonwllvz/tMTKLMxZaad1F5s3EGI/oK4EHsPIDnNeZ14Ouost1XGiPjZl28BHyQmEzGGOAkzKc/ByNeGltTV2FWs2Xu9w2Yo6gTMyP3uWt993NH4OOYRDiQ8kvd+pgy14bpLA/YR15BpANUdQwTPYwR97OHZvAM7MizjwGHYcwwg2y8QRqTEp1Y+bMu93cfFi7W457TiEUP7U1xekHaPWszRvCVWODpw8CrwEatr+8jlRrTM30wVDXQInTixg7Yer4vdqbN/pglsAnzOk7EGKOO/CHqQZm0jPsZSItuzBzbjtXUeQMrnPgM5pzZiNA57XNHpjfesBTOGHtreqmoaaSNtCxBUFQlDjIRI/wUssUVp5M9EauB7FLQi4nwdkxadGOzvNP93o1IryLmgVxQuGBihAgRIow/VG4JuC2JdANCA6bcZQTWK6S2Rxt5gNBxuUGk8gYYvQEepaJiJ4aIpXU0AN/CNOwHFS4A6twgbncIEf9s4G+uX98GJmyvfRqISh8ZMwM7tHEOdhjiyZi3cHvGTODzWPDqHMwOsb33qR+VZgCP3G3bBLb/Qyli5OZGxBlDZy2NmY5EKA8RA4xzRAwwzjHk+uwtThL3IeVRh9CI5Qh4aha5XkG7fV/Sw2Ejr6UVVEXNCrgDZv71MDNvN0jH2w6d3ff406vInFGeRW+INnygF2QLIr0AWo7V8LsrkDetBZUGTEHcjOdt1VQKFh2V95aQWXw6sDt2Kvlk1++NmBt9lbj6jeUGnniLk6CIev3H19RjuRrrgHReBgi2Pwp7pGLMxYI99gUaNTtwHYo8LR4PAH9Xj5elhKDu4LAqVT0YC/h4P6ZxNzjipIGtoM8se3Llb4Glkki+gjv3vgJtxNxgd4C+gOr9wENltaHrQGVX4KuYG/xP+P7nJRbr1jzXq+Xe7YLtKE7FUu92wCakOgK1A8+olcz5i7QseQ1QXVB8UA1Qr3CAi7P8MHY0UCPmWFsMXJtjCJKWJF5G8D3dGTgNC8LYlaFrBqUxr9pNmFv1FxhH474/Cng1GFBZnETURz1vTyzL6LOYE0gKtLESuBH4Kco6RBks1EwWtyK+oDG/lDYyWCzjNW5wet33s7H9/+yBfQrduxcW/XSsa+NlLG7htTAjOaI0YLWPvg68mcL1mNJYSt33sOSZIUPwvUQrfroPidft5voebMUH9v1l4IP9wlsSSTTt43t6OJar921HyEIvGMcOnPqOY4Kpg13oUs1EPe89WNDFuZgILGSRjLtB/h7wE4T97Hmt+dsQFY35pbYRw1zMF5AldjHYHYsTfG+ojfUMqGoSSoO7GJvVby1ibIO+H4wx5WXAjoMZoSSxBL8ujcTrjsBoeD6DHwfYDaTiwY2KIDFvHnAz5p4N4GNu1X9hSZ09mMduL8w4EhA87jo1yMsl0VkPIavf9X7XmfAgB0GXL7m2erD1ajbGXEEEUAybPVNATgV9IXbz0n7dwNroRFZPytdGGuP6J7BTOLowY9Vhrr8N7rousrO/EGYBV2NLS4BNwFWCblSnHIXS674NnDWA8CksUuop1/8UxlQHuPENSuY0YhZJD/iKJJLdA6WLApKKvR241d0fRjumV2zBajC0qLIyzkV3A4KgewHXDSB+O3AbcD3KSsTvEc9T9fHci83DUsbmUgQ3y+p3HeQGLEyYLiyb5mrgOZQuwEc0BrIj8G4sYeRwsruW+Vg8/qm+728B8G5JohmQ1ZMOztNGO5AArhP0dRVJu6RED5UgfO10xwRXuYEaCiowQy1g9fjQ9x1GZLlL3eleFuCKiHAysHDAOL2MLR13AGvQeFqkDyXugT/V9fN84J3YBIu791wuQguJZE5uppil8toBxO/F8heudEzWDfSJ+n0AcZmzK5hm+AVsNgTYAHwZ5HYgpQstWsYpNb4kku1Y3vs/MfF/MkPvKhox8bpf6LutmO/gOoRu3VoPX3hb8L+Ml1iy1id2t+AnMfF/YmgAPwycqrPrrpHFRnxMUgxsY7P77hYg7efqDb7XklyH8GP1uQeIo2wCVBfOYxBRq8Bstdn4KbLitRtLoL0ONJNDGOEAjInDFsVW4HOa0SfEE9WFOWf++ZJ4ZBPEfg3a6oh3srtvInCKKne58XOKKHUI5wLhwMpOLH/hcmCLqhJEZgfKaUCwg93gBugDrkT5KWhG84RA9yt1iWQbxqUTsJzBwfBmbKb1Exi40WrkaSrfkSh+83y4eSn4vIbFAU7AfA24wVwor6buRfpn7FsGtJEGrke4Bc2fueNn2y22XH4TtrzsT1Yi9QLXK3xfyGZGGWHUQ+Q/yc10egFbCpaLJ+QbX9QDzweVRrLLU4AZWMDM1v5vhIMGjH8auBb0WyCDZmsFZwYd4x4aYClwI0Je4ue8pyWNbsZm8ov5r/LBlKRpoS//AVwBOrS7+Iwj0biAKVaXkKt97wd8ApR4LAbwPiyCKMDjwDWDEb9MTCY3ILUPuFHgEsnnJhbZBUuaCRPmRjxdjpKX+JJoRbufB5VDsYTZ8P0Z4M9iEhoSrYjN52MwhS/c9yuHIj7YqWE7AB8IfdeDafObihqO5ncCoBl5HlvLBkLBm+iIE6APy/9bq1JESMJpbvlRngV+FvpPHPgYyMR0JjMZY7LwQN8KrNWRKzncB9wkyDcUOgcZ6L2xrXSAVcB9+DII8ZOo+CIT952P6V9Hk11merATRC8J4iwERS2c7rjcMeceM1AMPb4epsXvEvpuNVbQqOjiD9o8D4mp4nLl8lwSBIEGaAP+AhQdiavN8xDLUX/ADUSAOZhkmUjuDFiHVRnNqUpSQaSwHdNFinZsM1aJR4Lfdic3j2ElFqC6DeyYeY2JyvEY8Q8N/XsT8E1sKdwwoL3J5J593G59l4K1hz1sLQ2vMRvdA8rBBrat6ql52lhPsRJmW6wd0MYksla08AmoW7ClaSTgY9LlQmBr3omiweq6zT58g0JfPgsh0IDKAkw6hhNj3wDOBbmc/IagekzJDtBZ7PgGdX7C1vzgePJyEIRq9w/DENeVWw0kSBbpHzvyO7VGstR8GksoGaKErYJ4oDqwnxlsG2kvmEgG3DEF+CK2W5gUun4FcJ6q93sR1UGk8sAxCGo0FURgc+8LfRfE5ZeDKeTO9IDQQdWwAJPZVrMtFpPInenhglRhgkwma0SpNOoxU+4CIJ53u9itqCqYxAozwVQxZxTSkkSMTWdhW72LyCX+MuAk7cv8TsTXEgtKFzUBPLKWoQAzKbEuoCxOop6CZQaHB72dbLx+uAz9TErM/Q8N8iF52uhwn9dD38/AWSZl8bAqlwyGqZhp9nTyMcF57wx+e4VcxtwTF1KmvuLM2jcHz3HX+Fgl8c+I8Ch1sRE7QsZrap26GbMUBdgROBWk+GBOAfFlNuZACq93LwId4HcQHINmaAJOYbDZMzh2cm2Exd0rKJsx5fOvoe8nuEGdHEyzEcCOwH9bXyQ2SF9ewJggwBzg40ocETkS2zkdFxq3FFaM6zSF5xGBEUxF9zbObQcjzsbQ9x8DfR9ejEIEsv9rPWbmPCj0rx4svTrt6PVHciXNJ4H3EjcJUrANJY5Zw8KWrhRwP6LBruCv5Cp+RwGnIcQqGMWbIXc5mwZ8H/QkdFsmUGlYjRE04MI64CwhvQjT9MNVUrswU+7ngNW0vRn/jOqcG/gkVqY9wAzgh/iZ9yh4g3ufguIQcjq2PQnPzCewVPAAzwB3h/7eCbiaNMeoV7CNOMKJmN+hLvTvp4H7QkLnaWwrGqARuARlITAxXxuxm5LQkkQSyR0kkZzuJVrxhmaWNsy8Gp4wTcAPEP10mNm0eV7Am7/AJEGA/TGfw96h76zqGnwNZIs2z4Odl0Mimf2MAISbH0b8GNjaeh+56/9qzAZ/t6i0qdNCJbEEIAYyG1OEzsW2YuHOnI7qL/E8dMHcgJD7YD7tg/O08XOENsDXBf12eA9TkE4GvkyuJXEzsEjQuxQPRMNFJ+/BXMABurHDJ65Gec5Tun0BrJrBVMwHchZmD7mocXrdg93rUwFfDYwHWIlZ3d6N2djDxS3XYzWBf6YuqEQSSaTbQxv9oaqvrwG+gHKXq8cn2CQ8GDjCjeed5DE2uXEaNGahkO4gwUMaJqbp6YqfiPm2w51Kk62WsZysO3gu5pDZg9yZ34Wti5cRqpwlLa3g+yByHKb0zArdk8K2Vb/CTJid2E7krVjUzD7kOpq6gO+hXIZkM4+cSzQuFpnzDXKlhWLGoWVYqdt1jkk+QK5i+SjwIbIzPO/gakpWSZ2ehDmAwnkCa4CFs17Y7f7V+6wixMxTMPH+Wbbdtr6C7f1fd++8O/BBTFJMwpacc4AWFQhXKhkuA8TBRFWPPegebCZ/h6zlLu4G6BCy27oY+d2/m7BCkj9gQNm0QAoI8ntFz3HXzXH/rsP0h4OwNTYzRBsb3PN/GCZ+0A9pSaaxmT4LOIPsjBPMKPMh9xkMO2HMt3GIa5A6VUFuV7TLvU8QBTUTuHT13qseRc3ip76HeP4W4CtkHVphhp6DxQoMhgnAoV5GyMQrq9BmzwyygUyjeitW0WMJuSZX3EvX5yFMGnPunIbN/rzFErV5Hoqvqv59wH9gp5IM9MLFBmmjF3OhnoSJ3vxtLJgHSjDYl1LamciKOcI2hL4LUtIDZNx3KOoreg+2RD0ZumY64f38mf2FNtdg9RUvxWZpMdRUzI9/ux9z8m3w68L0KMrQtu3TEq3ABISeJmymnIgFhE5zhAkidlMY8V7BAjru9oQ2v4gC0l4iGSx0k7Cl5NPYercT2aBQHzPubMK2k/cCf9CYrscXChaZylYmeSuW2jUfK0LROKDfabI2hN8AV4KuUT+GeD7Y7LsY88jVYTum83GeP6+lFd9PIRI/xBH2MGypPANYn3/N1hjIfkAz5sDaDVuCggnpY8vgq669H4nykgo6iA4wFYuXnI/pO/difoOCVUsHPy+g5RFiXppMpn4CphNMx0RjKGSbzZht2xxApRorrlqGTO4FX2JuAKYOaKMH6EBpn3xgd2rLM41wZglt3LQUifmgUgc6C3MfH+EG3MOMSP/Cdg8rgXVW3Tu79XIDXIcpZTFgA0q3TuiDU94NBAytiHnlmoAOPN2MwmBRvOb4wUOZgSneh7ufHhYptAxY4Tx6g0YpS0sr3roN+DOaJmN2iT6EjaimSqnPGCFChAgRIkSIECFChAgRxgX+H2rIO7m5yEn6AAAAJXRFWHRkYXRlOmNyZWF0ZQAyMDIwLTA2LTEyVDEwOjQ5OjQ4KzAwOjAw9yB6YgAAACV0RVh0ZGF0ZTptb2RpZnkAMjAyMC0wNi0xMlQxMDo0OTo0OCswMDowMIZ9wt4AAAAgdEVYdHNvZnR3YXJlAGh0dHBzOi8vaW1hZ2VtYWdpY2sub3JnvM8dnQAAABh0RVh0VGh1bWI6OkRvY3VtZW50OjpQYWdlcwAxp/+7LwAAABh0RVh0VGh1bWI6OkltYWdlOjpIZWlnaHQANTEyj41TgQAAABd0RVh0VGh1bWI6OkltYWdlOjpXaWR0aAA1MTIcfAPcAAAAGXRFWHRUaHVtYjo6TWltZXR5cGUAaW1hZ2UvcG5nP7JWTgAAABd0RVh0VGh1bWI6Ok1UaW1lADE1OTE5NTg5ODhhMpzbAAAAE3RFWHRUaHVtYjo6U2l6ZQAyNDE0N0JCCC2UAgAAAFZ0RVh0VGh1bWI6OlVSSQBmaWxlOi8vLi91cGxvYWRzLzU2L052dlZvUTUvMjQxNS9kb2NrZXJfcGxhaW5fd29yZG1hcmtfbG9nb19pY29uXzE0NjU1NS5wbmf0VbBhAAAAAElFTkSuQmCC;" vertex="1" parent="1">
          <mxGeometry x="817.5" y="366" width="58" height="58" as="geometry" />
        </mxCell>
        <mxCell id="msttldhm7g2-u0YJvrAc-11" value="" style="shape=image;verticalLabelPosition=bottom;labelBackgroundColor=#ffffff;verticalAlign=top;aspect=fixed;imageAspect=0;image=data:image/png,iVBORw0KGgoAAAANSUhEUgAAAIAAAACACAYAAADDPmHLAAAABGdBTUEAALGPC/xhBQAAACBjSFJNAAB6JgAAgIQAAPoAAACA6AAAdTAAAOpgAAA6mAAAF3CculE8AAAABmJLR0QA/wD/AP+gvaeTAAAACXBIWXMAADsOAAA7DgHMtqGDAAAAB3RJTUUH5AYMCi84sx68CQAAFtFJREFUeNrtnXmcXFWVx7/nVXV3urNvhBgwURYlXQkOIKi4oJgKuKMTk+4A6uCCw+iAigt+QFxRRmUcV0Q+BpOuBhzMCAqSBFnUKI4ims5CZAxb6NhJTLrTSae76r0zf5xX6UpR1WvVe6+q+/f5vE9XV916dd+95579niuMY8hIJZIAk4DpQBrI+H/TQMbDy8Ql5q3YdG/YXR0y4mF3oALxcuAGwAP6gF7gILDHwdnmqf4glUg+29y2Lux+DgnjBDB8dALHAVOLfF4DXJ1alKR5U/SJYMwQwA9PTzLhMKgwAajtmTSxa8r+/Szbdv9wb9UO7KU4ASwGalDSYT/zUOCE3YEgkEokqeulVoXTgW8B36vvPjg7Ha8Zye3+AewY4PNjgPqwn3moqGoO4CttNcApwCVAEzAbk9/dInykNZHsbhqGvHZwDnp4d2O6gAMoIP5fB2jwr66wn38okLA7UA6kEktRcRF1Xgh8ALgYmJP3vH3AV4AvAH1DUdrWNJ6L48RBdRZwDkZM0zBxUIctqIPAemA3cAjo9q9DAt5gxOYTbQNQV6P1+3qlmwvb7ivbWFUlAbQ0nofjuKjKO4BVmOlWCN3AJ4HvAW4+EbQmliKCeKoNwFxgAfAi4CzgZMwcnEj/5OeK1DRwGDgAdACPAL8H/go8hbAXVbe5bf1Rv+kTwCuBK4AviKOPqqLNm45uVypUJQGADaSgExT5LPARiou7vwPLER7UTBwcF1XEcXQqcCLG6t+CiZEZwIRRjJuLiYZngPuAe4BNCH9H8Zrb1mUJ4I3AT/x2V9trPZxPLKVA1RIAHFlNM7AVvqxAk11AK/A1YCemL7wQY+8rgQTG4ss1Tj2YQnkHsBbY5r/3SuBnmGg5CNwMfMWBZ12UlSUkhFiZHiwSeNvsk3FEe4A/AGcCx/sfdQM/By5T9BZB0sAZwMeB64DlGLuvp7yLpAbTI14N/DOwENMdtvp/T8KsijOBlyls9WLxZ5bNfgF3dPytJB2oag4AkEosyT7mWcAtmEy+HrgLswZeClwGnIfJ9LDRBdwNfBPYj1kvy4FjgWsdd/IXvFgXpRIHVU8AAK0mChw1xW0fwm6UU4B/wwY3ChOfj38AKeC7QC3wZuAHQHsp3cxjwhHU1LYOT9QTZBuQRrkMW2WXEs3JB9NdLsM41VnAtyfVHWpXLe2aHRMcwFcGHeB04PPAuVSWEywNbAA+I8gfFfVKxQWqWgmEI5NfD1yEsdPTqDzOF8MUwvMxBXbb2485If2Tjv8b9Y2rlgO0NC7FEUVNy/4k8EEqyEc/AHqB1cC1CjsdhKa2kecfVCUBmObvAHoC8HXgTURr1XuYNbIfCy8fwpJL4pjXchqmmzRQeI4UeBC4HFf/TEwYqUioOgJIJZZi4yuLMJZ/dth98tGHefY2Y5P3a8wL2Y2tag9j9XXAFMwPcT7mFHoxhcPPm4EPAQ8AOhIiiCwBtCxK4nigwhwgLurtVJEB7d/WxiVoPAau9xLMZDo97OfAzLlHgFuBDQjt+2Vy3xSvmwsHYN2mu6iATMF8FR8EXstzrZYngXcDD3ga48LN9wyrc5HUhFcnkoiCCnOB7wNzVZxrBdanEsneQpTekkiCKrheAriJcCdfsdW9AfiuwJ9c6IkDK4pkCfnKai3wfKATtFPw+sDpVGQDxjFeDXwaeAX9czeRUYi3SBKAb5pMB76MBUYEaFH4IXBDatH5T6Iezf4Kak0swQNU5ASM7Z8RYvf3Yrb7fwJtoKLIdAcyHoNmCR2DcYoJIJuV2EbgCSxO8RdgHcZNrgD+FRMLq1AeAoa9+iFaihFwZCVMBK7CAjJZMTUFk3drUffNoBP8tiiC2OB9HZOZYaAXm6BlwDWYn/8ikNXAL7BVOxgczGppBN6JEdFaYA32fAB7gM9gIuHHwA0ImebNI1MCI0UAOWzww/6V76dwgH8CWjDuMDkngeIqTNsPA08Cn8Am/zfAx4BfYlG8FZjvYVnMPeRbKEVxEJvwnwG/Av4EPI7pEQrQ3LYOhYzC7VicoH00HY+MCEg1JkGJI1yCybnaAZpPxsK2jhtzJOZ6F2GZP0ETdAab6E+pw59EUZsm7gTeldefiRmn3gHxCt0oVhujc3f33knT6q9AiWMcZAJmFTiYTgHAStOBPMyCGBUiQwA+o58OLPUffCD8L5bk0RlzvbMxljvYd0qNQ5il8XmUPaJC86Z7s1xsI0YEF/lttwM3iSOe6xU2vJY/4svvp1H6N5scKvdDRIcAUND63cjh92Gy/gP0y71c7AD+HWONxwJfBJ4XcGf3YTGF7wC9ufJXcFC8Hiz7+NVAG3BNTOQRT5WLNkdr11Dk/AD+CooBrwI+h6VkZQl1L/BBzcR+LHE3jomKawiW9XcAV6K0AG4h5ct/hjpsj8B2gU6PI6w7UogcAcBRTqDZwOXA+zHL4FosfcvFInq3ATMD7NpuzAS7B9g/lCzfqCOSBJBFKpFEIS7mATsT25N3CMvQ/THBunk7gSuxrN6PYdznz+l4H+969IGwh2rEiJQZmI/mtnU4ohkR3SBwHcIhEYkB7wFeFmBXejGbfBdm2r0REz2TajK1o7ht+Ig0B8hF1umD6QRrsY0eQUAxm3s98Flgnv9+D3B53HG/n/FiI47GhY1Ic4ACmIY5fIKafDDX6zewgMu8nPfrgSszXqwRhZ8uXjKSe4eOiiCAVGIpnpcBuAAIcqT3Adci8lvM/fpk3ucnAlcjNBz0KoaZHoWKIABQHCd+Apa3XxfgD9+OsA5V9uL+ErNIOvLanAHMCnuERorIE4Av++PAe7HEiKCwHfgqahtHZxEjJtyJ+fw7c9rdh9Luu4ArDpEmAMvuAWyVXRLgT7vADx9o+9Lj2YltaluHq3hYZO5zmGWwA4vGpUcajQsbkSYAPwA2CfP7zw7whzcDt5yTuIrcifU1/QyWc3A9cJOij4U9SqNBZAnAVr8CvAbLjQsKHtDqqbRLAb5uRKA9oF8U9AYZYS5eVBChYFA+FJCZmNdt0ihvNhzsAG5zRGkqkn/o5yX2hj1CpUAkCSAnaSKJOX6CxH2iPBX2GASFiIoAAXP2XE6wZt9+YLUKblOFKnXDReQIoKUxiZhP5Xws/StIPIYpgGMGZRUBOaVVa9Rz9iOqKwdJiBABVY7Ftm6PqI7bKPBQ3I3vc520pBLJOqBXQaMYxy8Vyua/bEksJS59uFrzYWwP/mrgftAnRLU3XVPLxY/efdR3UomloB6IXIylWwVJAJ1YUumvsUyjTwNrVJ3fI6orR7H/LsoomwgQFFdrZgEXYinR3wLuA7lRxVkSz2Rmty5aIq2LkjnfUhA5BtsXH/TqfxrY7pueSSwl7VYRr0nQupxoZFWhbBwgp9zZz7Gc/lwcwurgpLBc+q2Y9w2sVs4aglX+ANYKukyRWdjGjpf673cD3wa+qsKemAsrtlSPSCgLB0glkogXEyzDd0qBJg3Y1q2vYVu/svvdpmEbHoKefAV+p0g21ezUnM8mYb6Im0U53ouc2jw6lO1x1HGPBd42hKZ/FZX9/uszsNSvoNEF/Er76sDSz/LTfGJYFlBYG0/KhpITQOrU12VfNmKbNwZCN9Cqohksr//dBOv1y2If8KzU9oLtOvprgTaHsVT0qkLpOYAbBzMv346x+oHwOPBH//VCTPkKAx2YEwj3YPoBbEPHH/La7GGcAIaMeowInsIKIxTDQ656e8S2y7yFYCN+ufg7/i4cZ1ItovowRgTrseAQmJWwJ6T+lQ3lIQDhALa58xwsjn8HxlYP57TaB9wWE0c15hyHbaIMC7t6p2TSorBy0714OCC6DRNJKYwItnhKd4XmfRRFWRPZ1iReT43EcdWrwXz7ZwLvwEysp/3X+zFH0Y8YeENoOXEVcF1uWHfNwtfiODUoTBX4KCYS7qzk0G8hBJbJmFqcBFdBiIPMAeo9r/Zxx+mbiKVdvyGkMUhj7P62QpObc+gEQHqcAEoIf3BPA+4lvMTKQxjxPVhtkzsUhObWsHr+gKV5h5lVm8Y2eYxJhOrX8os4vjPkMXAZ2FKpaoTt2DwFq+AdJlz64xBjDqEQgL/rVzDZG4bnLxfqX2MSoeUEipmFbwx7AKwrpo6kEsnJwGQV2gW0Ek7+HC3CFAEvBl4Q9gD4Y5Adh1OBtaK8D2XOrYlk9rCJqkXgBNCSSNKrNWBh14lhDwAW6cva+ZOBl2Dx/zs9WKEw4/YXvIGWCt39OxgCJwAB6iQ9i/AcP/mooT//oMEfkzjmtVwF3J6ZmDlfPJlYjVlBYYmAFzJ4qDgoxLFEFLAgVu6Y1GGc6r+Bq3HESS1aOry7RxyBEkCq8cjgnU7x07eDRpz+wg/5BJBFA/AKPK1Hq8tgCJYDiIIN5puITnmaGDDffz2QSVhP8ImqZUcYImAudiJnlPA8UQ/sJLFvYLUBMnlt6hgngJLgRApXAA0TM1WcGuBZ0I9i8YlPYCVpD/ptJjBOACNHSyJJzJj+Swm+ru9gmJXtU3Pbeg/LZLoBy2q+EOMMnUR0M+1oENgDCeAqkwm2yNNQMQNzSR+AI4Ug9NZTXr+vtz7+PzV93r2YnrA37I6WGkFT9ByiY/7lYjpGBEfV3l+xdUP2ZQ92snfVIWgdYD7B1vYdKiYTfMXxSCAQAmhdtCRrWzUSzcMb67HMJFY1RlFClQ8jFgG+W7QRq4nfhW3yOICxy0P+1QP0oLJP0FrgdSP7tUCwSMGplcInelQrRkQArQuPrOjXAf+FpU1nEyvSWIZNr39tV/Rd/lfDTv4YCPPFnFSjPoalkjAiAlAR8HBwjkxoNqSaPecmF/swTrCA6Nn/uZiLxQTGFAGMTAcQwKGOoa3onaAHMAVwctgPPABmYIUhxhRGowTWM7StXDtERTEPYJSL60/BP3By1UnLwu5LYBgNATQweEQvDTysQoxgD3gYCWLA2Yg4tXVdYfclMIyGAKYweEZPN+ZAmUy0FcAsTkR10ljKER0NAUxj8O3f+7Gt11OJpgMoH8czxvSA0biCZzB4KZcOzAp4EeGnfw8Fs7BQ9fbVpy6VTPxoTiCgHQJXHgapkm1koyGATuA+bGVPxdh8A6Yc1mK2wk5i3kFc5xgG5xZRQB1wHsiGmKuXxlzmcLQ8cI8DrxV2pxLJNUBHpe8nHCEBCAq/FvQCzO5vwFb4NMyn/mJs1W/EdcBWVpQtgFwsBrUUMHhrkTYeMF1Er0klkmOvWnizFU1U+r19uSdo0JJI/lRAUBXEAXQu0UkBGwwLsOjgT7GqJYX67QDLVOVm4ImwOzwalCUYtLJtHc1t6xQRT8y8OinsBx0GZmOVwv5CHmHn4STgYjfm5J5sUnEoezTQQ2sw7bpS4ADnYXWDnhik3YqY6x1fyWZj2QlALD4QlRTwoaIR6/dgwv1koMkTh0rdNBJEPkAt0cwBGAjzsPyAtdjx7+1YhbAuLLDVh0U+Y8BFjnrzRvg7oSOIlLA4lWMBZFGHFa64GMthnIJZOxMw7+dMzLKZ5X82A9gZdqdHgiAIILvXrtJwGha+frq5bd2uQg1Wn3KuHxhFKjVfvKymmS8XjwMeJJrJoAOhF6sTeKvnKRduWT/K20UTQegARwowVBjqsPqFdY5Tid0fGoIgAI/+cquVhtOoLBN22AiCAJTKJYB5wJsRKtbMGwxBEIDLczdaVgpiwAVowUMvqgJBaOeHgb9h0cJK4wTi93s+sCnszpQD5SUA85B2IVyC2dCV6jOtuj2B4xjHOMYxjnGMYxzjGMMoiY/Td5JMw4o/NlBY2/cwf8BhLNOmA2hHdI+ouE2D5NW1JpKg4qjoLOD5WCSuAbPVwfwNh7GQbQfQ7ngcUIFCR8H7fZ6PvxsoBwo8Cvwtm+uXWpi07ACX2VjauJNzKXbq+MHh5Aa22O/H/ZrJ87CIYrZMnUd/xTIv5+8BrG7R4VLlIZbSDJyLnQQ6UF599kHSWPGldlR+ptCSakxuAbzmIpOlMAnRZuxk0QX+YMXoJ+Lce3cCWzyHm4G7U4lkV5EBOwc7pDoXHvAh7ERTABwRMp6HgzQDV/tv+4FADgAX0H/83YBoaUziKSK2Ve692OGaczAzOZbTNH8RCeZPORd4plSTFnSFEPEfcgIWU08AnwTuQliGiJPvcm21k0Xq/HbfxGr5TsPei/v3i9GfdzARy0x+PXALVuxpShFXbjZUnXvlElU+Gvx+z8RW7DQsHyDGENDSuBQRJeZwGlZ99ONYVtHUnOfJXjV5V/b5ShqZCvvAiCwWADeAvgqsokgWPh88AztRfLiJJbXYgVD/EgV/vogCMgP4CrA41M74iAoBgImQKxAmqE/kLYkktV4MjO1NG+F9a4C3opGoTA4WYXx52J3IIohYQKFooENhVvYSlLnADvwGfY47gcIDlsYyd3PvLZg8zecUWYXxICGhJZFEEBQ9g8K7pLLVVYrBwZJUSupOD4IA/gx8h/5zeQRowlZ1PqZjaVg78vpYKBr3BHba6G7/nuq3W4PpCbmIETK3M2rXGmBRkSYbgS9y9PlF+YukhxIfXxsEATyl6Cp86nZxnTjxUylMADU8d3UUyyhKK/oM0LGybX32ZI+pGuETwNSIcHqRj3crPChHhc49F+La3PaLsvUpasmaWT9BdUJxkaIr+GyBu+hn8QpOO3gbU4nkw6BbFelbWeJ9iAGlhcsU8TlAjLhD8W3lXVThCd0AiuKIk1F0I1Z/OJ+rzfGvfFwM7AZZLXB9KpHsiLmwfGv0HEHF8HKBe/Ap23/q+UXaPokpdlWHlW3rs2boQ/5zLhjiVwXTiz6CeQw/4MYoWQ2bIBSj6ViF8DNzrkKU7gJ3eSpdQ/R01AmyUJBEKpFcrFbosZEI1yEQVZyMtxX4Egx7EgXzOC5HIbWoND6NKPkBfgu6yhFlsLiAjwXAHcD9WKGKXwJ3YrUJIommzevx4o5ih1F9CKufNJxTS+uAJoSJpTIGo0AAGeA3wIdBdg3jezHMHTsr55pJ9BTbo2AxCUmjsho7j+AT2CbUzZho2ImJwW4K2/zz/ecuCcIcLMV8BKuA22RC7S7t6aNQMKjakC2wkVq05CnQr6HOt+nff1iLmcNzgEuxPYq5UrGeEoq5MAlAMM/c3cAu7UlX6uQ7mBv7+alEshBHFWA/wr78o2ibNx3ZbnaYHPP31sQSXJytgs7E5H6uZ7Ok+yzKTQAe8DimvRbyxZ8N3AS8H9HtqcZkJRLBROBGijugHOAbKP/hWwHzMEW4qPj1IC7ofOA9PNetfRjzCJYEQXCAH2Hy+lMUPivoNVjs/f0IwyGCbmArR286cbDiVNMCeK7c35wzSJvc/pwFtDDw2GfD5oXQgX+0Tak6X04I0CPIl4HrKe7lyxLByQikGodk4jyGscckpkwtBXkT8EiZn2kkyFXmhOfmIBTKSSiG36lqRfkBRNG+IRLBTQydCFyMC3Q3t607AHIApJvSbEOL6nbgLcCNIlKy0nSlJoCiA6doLifooV+ZyV6KnT5yI3DSEHpW7LeyClL2AIvc9/LRh5WzzV6d/tVbxnEZLnF5ft/uBy6d2r25pIdXlVIHSGO5an0cFdAwj1dz2zpSiWQPlg2zBcsdLOjOEOVYcXlcY6oW3ZNbsCIT2YkU4GnyJkrQtMK3MIeQ5rT9B4U9b/diJWByJ0WBJyWna54qIgLKRuA6hheTF+CBnP+fxtLBirH57MLI+H3eBjwMPFYb186uyY3kWxOjQSmzgmswn3X+g+0HuobKsm5buARPBFHLC1peRZU5WhafB34yaTEKErUkOBX1epxadfC45NF7wu76OKoV/w/MVbCgQ0S+pQAAACV0RVh0ZGF0ZTpjcmVhdGUAMjAyMC0wNi0xMlQxMDo0Nzo1NiswMDowMHV8MRIAAAAldEVYdGRhdGU6bW9kaWZ5ADIwMjAtMDYtMTJUMTA6NDc6NTYrMDA6MDAEIYmuAAAAIHRFWHRzb2Z0d2FyZQBodHRwczovL2ltYWdlbWFnaWNrLm9yZ7zPHZ0AAAAYdEVYdFRodW1iOjpEb2N1bWVudDo6UGFnZXMAMaf/uy8AAAAYdEVYdFRodW1iOjpJbWFnZTo6SGVpZ2h0ADUxMo+NU4EAAAAXdEVYdFRodW1iOjpJbWFnZTo6V2lkdGgANTEyHHwD3AAAABl0RVh0VGh1bWI6Ok1pbWV0eXBlAGltYWdlL3BuZz+yVk4AAAAXdEVYdFRodW1iOjpNVGltZQAxNTkxOTU4ODc2ANDHJAAAABN0RVh0VGh1bWI6OlNpemUAMjE4MjNCQneSkMAAAABVdEVYdFRodW1iOjpVUkkAZmlsZTovLy4vdXBsb2Fkcy81Ni9OdnZWb1E1LzI0MTUvcmFpbHNfcGxhaW5fd29yZG1hcmtfbG9nb19pY29uXzE0NjM3Ny5wbme3TLebAAAAAElFTkSuQmCC;" vertex="1" parent="1">
          <mxGeometry x="1171" y="432" width="103" height="103" as="geometry" />
        </mxCell>
        <mxCell id="msttldhm7g2-u0YJvrAc-10" value="" style="shape=image;verticalLabelPosition=bottom;labelBackgroundColor=#ffffff;verticalAlign=top;aspect=fixed;imageAspect=0;image=data:image/png,iVBORw0KGgoAAAANSUhEUgAAAIAAAACACAYAAADDPmHLAAAABGdBTUEAALGPC/xhBQAAAAFzUkdCAK7OHOkAAAAgY0hSTQAAeiYAAICEAAD6AAAAgOgAAHUwAADqYAAAOpgAABdwnLpRPAAAAAZiS0dEAP8A/wD/oL2nkwAAAAlwSFlzAADsOAAA7DgBcSvKOAAAEK1JREFUeNrtnXtwVFWexz+/e7s7nYQQQgCRlyAiiIIvjGlg1NURd1DcHWt1lBlLR0ZHgwrxgVNrrdZSM1P4QhASZgbflq476Pga1NURFYHwUHwgiEIw8hIiJoS8+3HP/nGSQDkB6ee9fbs/VFGVqj63f+ee7z2/3++c3+0DWbJkyZIlS5YsWbJkyZIlgxC7DbADoyIAIEroBYSVmI2iLFTZKrtNSzkZJQCpCGD6hUi7KgKuAK4DmoAFwNtKaDYUWGVVdpuauntitwEpYe5ZiN8DSuUgcgEwCygFcjo+0QS8B8wB1gBhlSEicL0ApDIAgoFiDHrgLwYKD/PxWuAFYJ4otipBuV0IrhWALAqgRCGWDAKmA78CBh5Fny2gGvgT8HS+UbuvxeqLVbba7i4l5z7ZbUDCO1RRCoYBSvVE+/lbgdGAGeWlgsBHwAPAmyKq1bIMmO6uQNFVApDKAIAPOAe4C5gI+OO8bCPwD2AOwnqUu+IDVwhAKksBDJCTgDuBS4GiBH/NHuB54BGU1IBSanr6CyGtBWBUBhAEC3UscCNwDTAkif2ygK+ACuA50+OtC4dCkMZCSEsBGJUBLG18AfBzYCYwBvCkyIR2YC1wP/APQbVZmFC20u5bEzVpJwCpDIBSXkTGo/38uUCeTeY0AG+ihfApEEm3+CBtBHCInx8B3A5cBhTbbReggN3Ac8BChewQVNqsHzhfABXjQRmIEekHXI9evh0KGHab9gMiwGZgPvBXUaEGZeSgbnK2W3CuAConYEgEpSQfmALcBpwGeO027UdoA6qA+9DLy+0KC8rW2G1XtzhSAB35vAcoQfv5C4B8u+2Kkv3A34EHQD4HZTnRLThKAFIRAJQgMhwd2V8O9LPbrjhQwE7gaWCRUuwSAScJwRkCqBwPnkIkvL8PcC1wAzAc5/n5WIkAG4GHgRdBGkE5Qgj2CmBhADEBi1yEnwF3AGeil3PdSCvwAXA/ig8wCKrPgEX2CcE2AXT4eRM94HcBF6IXdjKBOuAV4EF05mBbfJByAUhFAAUiwnHADOBKoL8tvbcXBXwDPA4sVobsESv1biFlApCKUjymSdiyegNXo9fuT8Q9fj5WwsBnwEPAqyBNqYwPki+AyhIED6D8wE/Ru3Vnc7AcK4umGXgfvX5QBYRSIYKkCkAqS0GJiTAWXY71Mw5fjpVFsw/4GzBXhC1KJTc+SIoApDKAQokgg4CbgV8CA5L1fS5EAduAvwBPeA31XdiSpFQrJ3RAdAGmgFKFwFXowR9F9OVYWTQh4GN0WdrrSqTFsCys6YmrT0yYADrSuhz09uxdwHjiL8fKomkClgFzUKxDEleWFrcAOgbeAE5GB3hTgF523SmXsxdYAswT2KaIv2w9ZgFIZakuxsIcANyELscaFM81u0OhtEc8xGJxcCihlEIbLCBJsdQCtqLL1p9CqEPFvr8Qm30VpYguvT4HmIvepk2on1fKwmt6KfDmkevxY4pByArTHGqlKdSKpSIdN9gZYlDKwu/JoXdOT/yeHNojQerbG2kJtSIiJCH+DQHL0XHWZlFgxVCbGFMNnRwM9P4bvZSbuBuJwm/6OHfAGVwzcjIn9hpMoa8HXsOkLRLi+7YGPq+r5q9b32Ft7SYag82I2LeWpFD4DR+ThpzNtJMuZVSvIeR5/LRFglQf2MVTm5fyas0HNIfaOoSQMLzobfJ7QV2nhNZYLhKTRR1+fyh64WJIIm9m75ye/L7kt0w98SIKfYcvATgQbGZN7Sbu//gZ3tu1nrCKpHw2UCh6evOZXXI9vx51CT27sbcl3MaS6mXMqlpIbUt9okUAUAOcB3wTixuIadqWiwcD9EaXZ/VMRC8U4Dd93BeYzg0n/xu5niMvFOaYPob3HMjk4wKYYvDRd18SssIpFYFHTP5r3HXMGPsL8jzdJzxew8PY4uEU5vRg2a6PkmFjE/AUUM/SnVE3ds46vLI4f+A4po6YhClHr8s+/l7cM+467hl3Hblmjg4aU2GushhbfALXjpyM1ziyJzXEYOqISYzvPwaUlRL7jhbHCMBn+rhm1GQKfT2ibptj+rh1zBVMO+lSzFTFA2Jw5YgLOTa/z1F9vMCbxxXDL8BrOqvUwRECUCgKfHmcWDg45mvkenK496xpTBn6k45ULLnkGF5OLhoWVZsz+o6kwJuXslnqaHCEAFDgM7w/6vd/jD7+Qh4afwul/U9BJXmqNUTIifJp9hle7d6cM/4OEUAX8QdHx/ccyPyJ5YzoNTjpInADDhNAYijpN5oHx99K39zeSXUHic/oYibmTrpSAAAXHzeBe8+aRr7X7yif6zRcKwBTDKadNIUbT/45HjGTJAHnTAGx4loBgF5YuvvMX3PZ8efhqMjLQbhaAABFOQXcH7iZnxx7asKDwvR//jNAAADHFfRn3oRyRhUNzWYGPyAjBAB6EWbuhBn0z+uTkoWiFBJXZzJGAAAXDS5ldsn1FPjyEiSC9HcCGSUAQ4RrRk7mljGX4zU8MaeHupVTSlHivCd2GxAPquNfNPhML7NOv5orTrggvgFMSpFP6klrAWxr2M2mupqo2xX68plTWsZ5A86MOSh0wdgDaS6AHc213LZyPjWN30bddlCPfsybOJNTiodndGaQ1gIwgBXffsKsqgrq2g9E3X5s8QnMnTCTgfn9YhKBG6KAtBZAZ+n136rfZc76p2mLBKO+wk8HjuMPpTdS6OuRzulhZm8GRZRFxYYXeWLz37GifJJFhKkjJlF+6lX4TG/GbRy5QgCI0BJu4961i1n6TfQ/5+41PNx22lVMHTEJI4pp3Q1icYcA0E/yd6313L7qEdbVboq6fYE3jz+W3sSFg0syKih0jQAARAy27N/OjBXz2HZgd9Ttj80rZu6EGZzW58QfFUH6P/saVwkAtAhW79nArKqFfN/WEHX70UXDmDexnCEF/Y8sgs5XANMc1wkAABFe+fp9/vDRk7SG26Nufs6A05hTOp2inJ7dZgY6SnBDBOBWAQBhZfGnjS/x6BevEok2M0C4fPj5zDrjavwe3xGGOv0l4FoBCEJruJ3Z6x7jtZoVUbf3GCa3jrmca0ZeHFVmkG64VgCgM4N9bfu5Y9UjrN67Mer2eR4/s0uu5+LjJqTzItERcbUAQAeF1Q07mbniYbY2RP/yZL/cIh6aMIOSY0b/U1DoBkm4XgCgRbBm70buXLWA71r3R91+ROEg5k8sZ3ih+142yQgBgHYHr9WsYPaHj9MSbou6fekxp/Dg+Fvom1t0iAjSfw7IGAEARLB49ItX+PPGlwmrSNTtpwyd2PGySa5LksAME4AgtIWD/P6jJ3jl6+VRtzfF4DcnXcqNJ1+mXzZxgQZSdc6eYxAR6toauGPVAvrnFTOh/9io2ueYPu4+81r2te23uysJIaNmgE5EDGoO7Gbmiof5cv/2qNsX5RQwp7SMMcXD7e5K3GSkAECL4MPazdy+cj57W+qibt8/r5h+uYk+njj1ZKwAQLuDN7ZXcc+6xTSFWuw2xxYyWgAAFoqnNi9l4YYXCFlhu81JORkvAEFoj4SY8/EzLKleZrc5KSfjBQDaFTS0N/G7qgre3bXebnNSSlYAHYgIO5r2Ur7yYTbWbbPbnJSRFcAhiBh8um8L5Svns7t5n93mHC1x1SZlBfADRAze2bmO/1yziIZgs93mJJ2sALrBQvE/X73FvE+fJxgJ2W1OUskKoBsEIajCPPTpczy75S3XbPx0R1YAh0EQGoMt3L1mEW/vWGu3OUnDYQKI7kmzSG5xhojwbfM+ylfO55N9WxLQO+fNJM4QgEDICtEaju7lzh2Nezt+fz+JponBprptlK+cx/amvXFdqzHUQrsVdNSPCzhCAIJwINgSVc1eRFm8u3s9oRQEaSIG7+9ez++qKqhvb4z5Om9uX01jsMVRr5U7QgAAwUiQJ79cetSp19aGnSzf/XHK7FMIL1QvY/aHj3MghvTwm8Y9vLztfcfVFDpGAHTk3898+QaRHynX2h9sYvaHj7HtwO6UHRglQEhFqPj8BW5a/gDVDbuO2qPvb2/i3nWL2VT/ta0HXHVHPGcG9QKuJUGHQQsQVhGq9mzAUorRvYf90zk8llJ83bibu6oqWLL1HSJYKZ1OBcFSFhvrqnl75zrCVoRB+X3J8/gxuhnYsBXhi/oa7qxawJKty5Jl737gCaAhljOD4jk1rAh4HShNZG+UUvhML6f2GcHkIQHOHXA6Pbx51LbW88b2Kt7esZbqhh1YnYcz2oRSFj7Ty7CCAYztcwJnH3MKY3oPp4fXT3O4nY1121i15zPW7t3EjqY9qOTZuhS4EmiK5dSw2AUggOISYD4wLNZrHQ6lLAwxyPX48Roe2iNB2sJtetgdNI0qZYFSmIYHn+nFNEwilkUwEiRihUGMZBwVBzpnXg/cAGq9UgZMj/7HMWI/OnZRx5nBilHALWgV9kp8Lzs9rZNi58PZ2vl/0m3dA/wZeNwQtd1SkuKjYw+9wMFTwwPALOD8jr+zJJ4m4GXgYeAziP8U8YQIVSpKQPxAqBcwGX2K+BgSfJ5wBhMCVgNzgPeUSIsZiRC5eU3cF07oTCWVAZSIiFIDgauBMmBgor8ng1DAFvQB3S/mmbKvNaKw4nzqDyUpA9PhFkxgNDAT+A8SdMRsBlELPAY8KlCjwIp3uu+OpD6ZHULwAxPR8cG5gLOOznQezej0+kHgYyCUjIHvJOlTs1SWIspAieoNXIKOD0bjpFVIZxAGPkT7+XdAmkDFHN0fLSnzzVIRQCklYsgQ9Arib4FjU/X9DkYB24B5wBJlsFcskj7wnaQ8OJPKAChMhLFAOfDvQEGq7XAI3wNPAn8BtpIkP38k7InOK89DaAMkDzgHuAuYAHhtsSf1tAJvAQ8A64Bgqge+E1vTM6kIQG8f1AeL0TPB7cBI3BsfRNCB3X3A/2FJI6aFumm1bQY5Ij/X2YIIqKHAb4BpwDF225VAFLAdvW/yvIrwrRgKNd2+ge/EEQLoMkYLwQPqNOAOdNaQb7ddcVIPPAtUAl8BEbum++5wlAAAWDARwxNGKckH/gUdH5SSfr9m0gYsA+5HsRqh3UkD34nzBNBJxXiwDMSM9EWvJJYDJzjaZo0FbED7+dcR1YAyUGXRb9WmAqffzM7VRAM4Hr12cC3Qx267DsNOYCHwrFLmLhFLOXXgO3G8ALoMrQyAUl5EzkSvJv4rkGe3XR00AP+LHvxNOMzPH4m0EQCAWRkgoo0uAC5AxwfjsC8+CALL0dP9ClBtCj+UvWf3rTpq0koAnRiVAQSwdKr4C2AGSShLOwIW8AV6IedVEU+9skKOSOuiJS0F0GX8wfhgBLr24FdA7yR/7bfAIuApkB2gVLpM992R1gLo6oQWgg8oQccHk9Db0ImkEXgJvWmzgQSUYzkBVwgAukQAuvDkInT9wenEX5YWAlaht2mXK6TFQ5hwmTveGHaNALo6VBmgozJ3ADAVuBkYEkNfLfTK3UPAS6e+WvX9Z1NKsdLQzx8J1wmgq2MH44NYytb3AouBxwVVo0CpMncNfCeuFUBXBw+WrZei08Yjla03A6+hizA/IcnlWE7A9QIAkIpSvcdEpBfdl62H0Pvyc4BlCppNIOLywYcMEUBXZysCKEREusrWf4ke/MXAC6ZFrWWQ0LJrp5NRAujq9MGy9WJAgXwPKuXlWFmyZMmSJUuWLFmyZMmSJUuK+X+nIIYge2RpRQAAACV0RVh0ZGF0ZTpjcmVhdGUAMjAyMC0wMS0xMFQxNjozNjoyMSswMDowMBGcCc0AAAAldEVYdGRhdGU6bW9kaWZ5ADIwMjAtMDEtMTBUMTY6MzY6MjErMDA6MDBgwbFxAAAARnRFWHRzb2Z0d2FyZQBJbWFnZU1hZ2ljayA2LjcuOC05IDIwMTktMDItMDEgUTE2IGh0dHA6Ly93d3cuaW1hZ2VtYWdpY2sub3JnQXviyAAAABh0RVh0VGh1bWI6OkRvY3VtZW50OjpQYWdlcwAxp/+7LwAAABh0RVh0VGh1bWI6OkltYWdlOjpoZWlnaHQANTEywNBQUQAAABd0RVh0VGh1bWI6OkltYWdlOjpXaWR0aAA1MTIcfAPcAAAAGXRFWHRUaHVtYjo6TWltZXR5cGUAaW1hZ2UvcG5nP7JWTgAAABd0RVh0VGh1bWI6Ok1UaW1lADE1Nzg2NzQxODFXr3wrAAAAEXRFWHRUaHVtYjo6U2l6ZQAxNUtCQuy3oDcAAABLdEVYdFRodW1iOjpVUkkAZmlsZTovLy4vdXBsb2Fkcy81Ni84YnZzM2FWLzIxMDcvZmlsZV90eXBlX25naW54X2ljb25fMTMwMzA1LnBuZ0nGhFMAAAAASUVORK5CYII=;" vertex="1" parent="1">
          <mxGeometry x="1027" y="424" width="113" height="113" as="geometry" />
        </mxCell>
        <mxCell id="msttldhm7g2-u0YJvrAc-16" value="" style="outlineConnect=0;dashed=0;verticalLabelPosition=bottom;verticalAlign=top;align=center;html=1;shape=mxgraph.aws3.application_load_balancer;fillColor=#F58534;gradientColor=none;labelBackgroundColor=none;strokeColor=#3399FF;" vertex="1" parent="1">
          <mxGeometry x="154" y="477" width="89" height="86" as="geometry" />
        </mxCell>
        <mxCell id="msttldhm7g2-u0YJvrAc-1" value="" style="sketch=0;outlineConnect=0;fontColor=#232F3E;gradientColor=none;fillColor=#4D27AA;strokeColor=none;dashed=0;verticalLabelPosition=bottom;verticalAlign=top;align=center;html=1;fontSize=12;fontStyle=0;aspect=fixed;pointerEvents=1;shape=mxgraph.aws4.internet_gateway;" vertex="1" parent="1">
          <mxGeometry x="137.5" y="701" width="88" height="88" as="geometry" />
        </mxCell>
        <mxCell id="msttldhm7g2-u0YJvrAc-17" value="test_public_subnet2&lt;br&gt;10.0.11.0/24" style="points=[[0,0],[0.25,0],[0.5,0],[0.75,0],[1,0],[1,0.25],[1,0.5],[1,0.75],[1,1],[0.75,1],[0.5,1],[0.25,1],[0,1],[0,0.75],[0,0.5],[0,0.25]];outlineConnect=0;gradientColor=none;html=1;whiteSpace=wrap;fontSize=12;fontStyle=0;shape=mxgraph.aws4.group;grIcon=mxgraph.aws4.group_security_group;grStroke=0;strokeColor=#248814;fillColor=#E9F3E6;verticalAlign=top;align=left;spacingLeft=30;fontColor=#248814;dashed=0;labelBackgroundColor=none;" vertex="1" parent="1">
          <mxGeometry x="579" y="610" width="772" height="180" as="geometry" />
        </mxCell>
        <mxCell id="msttldhm7g2-u0YJvrAc-18" value="Route table" style="swimlane;childLayout=stackLayout;resizeParent=1;resizeParentMax=0;startSize=20;labelBackgroundColor=none;strokeColor=#3399FF;fillColor=none;" vertex="1" parent="1">
          <mxGeometry x="590" y="136" width="190" height="120" as="geometry" />
        </mxCell>
        <mxCell id="msttldhm7g2-u0YJvrAc-19" value="network" style="swimlane;startSize=20;labelBackgroundColor=none;strokeColor=#3399FF;fillColor=none;" vertex="1" parent="msttldhm7g2-u0YJvrAc-18">
          <mxGeometry y="20" width="100" height="100" as="geometry">
            <mxRectangle y="20" width="30" height="460" as="alternateBounds" />
          </mxGeometry>
        </mxCell>
        <mxCell id="msttldhm7g2-u0YJvrAc-22" value="10.0.0.0/16" style="text;html=1;strokeColor=none;fillColor=none;align=center;verticalAlign=middle;whiteSpace=wrap;rounded=0;labelBackgroundColor=none;" vertex="1" parent="msttldhm7g2-u0YJvrAc-19">
          <mxGeometry x="20" y="25" width="60" height="30" as="geometry" />
        </mxCell>
        <mxCell id="msttldhm7g2-u0YJvrAc-20" value="next hop" style="swimlane;startSize=20;labelBackgroundColor=none;strokeColor=#3399FF;fillColor=none;" vertex="1" parent="msttldhm7g2-u0YJvrAc-18">
          <mxGeometry x="100" y="20" width="90" height="100" as="geometry" />
        </mxCell>
        <mxCell id="msttldhm7g2-u0YJvrAc-23" value="local" style="text;html=1;strokeColor=none;fillColor=none;align=center;verticalAlign=middle;whiteSpace=wrap;rounded=0;labelBackgroundColor=none;" vertex="1" parent="msttldhm7g2-u0YJvrAc-20">
          <mxGeometry x="10" y="25" width="60" height="30" as="geometry" />
        </mxCell>
        <mxCell id="msttldhm7g2-u0YJvrAc-24" value="0.0.0.0/0" style="text;html=1;strokeColor=none;fillColor=none;align=center;verticalAlign=middle;whiteSpace=wrap;rounded=0;labelBackgroundColor=none;" vertex="1" parent="1">
          <mxGeometry x="610" y="212" width="60" height="30" as="geometry" />
        </mxCell>
        <mxCell id="msttldhm7g2-u0YJvrAc-25" value="igw" style="text;html=1;strokeColor=none;fillColor=none;align=center;verticalAlign=middle;whiteSpace=wrap;rounded=0;labelBackgroundColor=none;" vertex="1" parent="1">
          <mxGeometry x="700" y="212" width="60" height="30" as="geometry" />
        </mxCell>
        <mxCell id="msttldhm7g2-u0YJvrAc-29" value="Route table" style="swimlane;childLayout=stackLayout;resizeParent=1;resizeParentMax=0;startSize=20;labelBackgroundColor=none;strokeColor=#3399FF;fillColor=none;" vertex="1" parent="1">
          <mxGeometry x="1411" y="445" width="190" height="80" as="geometry" />
        </mxCell>
        <mxCell id="msttldhm7g2-u0YJvrAc-30" value="network" style="swimlane;startSize=20;labelBackgroundColor=none;strokeColor=#3399FF;fillColor=none;" vertex="1" parent="msttldhm7g2-u0YJvrAc-29">
          <mxGeometry y="20" width="100" height="60" as="geometry">
            <mxRectangle y="20" width="30" height="460" as="alternateBounds" />
          </mxGeometry>
        </mxCell>
        <mxCell id="msttldhm7g2-u0YJvrAc-31" value="10.0.0.0/16" style="text;html=1;strokeColor=none;fillColor=none;align=center;verticalAlign=middle;whiteSpace=wrap;rounded=0;labelBackgroundColor=none;" vertex="1" parent="msttldhm7g2-u0YJvrAc-30">
          <mxGeometry x="20" y="25" width="60" height="30" as="geometry" />
        </mxCell>
        <mxCell id="msttldhm7g2-u0YJvrAc-32" value="next hop" style="swimlane;startSize=20;labelBackgroundColor=none;strokeColor=#3399FF;fillColor=none;" vertex="1" parent="msttldhm7g2-u0YJvrAc-29">
          <mxGeometry x="100" y="20" width="90" height="60" as="geometry" />
        </mxCell>
        <mxCell id="msttldhm7g2-u0YJvrAc-33" value="local" style="text;html=1;strokeColor=none;fillColor=none;align=center;verticalAlign=middle;whiteSpace=wrap;rounded=0;labelBackgroundColor=none;" vertex="1" parent="msttldhm7g2-u0YJvrAc-32">
          <mxGeometry x="10" y="25" width="60" height="30" as="geometry" />
        </mxCell>
        <mxCell id="msttldhm7g2-u0YJvrAc-36" value="Route table" style="swimlane;childLayout=stackLayout;resizeParent=1;resizeParentMax=0;startSize=20;labelBackgroundColor=none;strokeColor=#3399FF;fillColor=none;" vertex="1" parent="1">
          <mxGeometry x="1411" y="136" width="190" height="80" as="geometry" />
        </mxCell>
        <mxCell id="msttldhm7g2-u0YJvrAc-37" value="network" style="swimlane;startSize=20;labelBackgroundColor=none;strokeColor=#3399FF;fillColor=none;" vertex="1" parent="msttldhm7g2-u0YJvrAc-36">
          <mxGeometry y="20" width="100" height="60" as="geometry">
            <mxRectangle y="20" width="30" height="460" as="alternateBounds" />
          </mxGeometry>
        </mxCell>
        <mxCell id="msttldhm7g2-u0YJvrAc-38" value="10.0.0.0/16" style="text;html=1;strokeColor=none;fillColor=none;align=center;verticalAlign=middle;whiteSpace=wrap;rounded=0;labelBackgroundColor=none;" vertex="1" parent="msttldhm7g2-u0YJvrAc-37">
          <mxGeometry x="20" y="25" width="60" height="30" as="geometry" />
        </mxCell>
        <mxCell id="msttldhm7g2-u0YJvrAc-39" value="next hop" style="swimlane;startSize=20;labelBackgroundColor=none;strokeColor=#3399FF;fillColor=none;" vertex="1" parent="msttldhm7g2-u0YJvrAc-36">
          <mxGeometry x="100" y="20" width="90" height="60" as="geometry" />
        </mxCell>
        <mxCell id="msttldhm7g2-u0YJvrAc-40" value="local" style="text;html=1;strokeColor=none;fillColor=none;align=center;verticalAlign=middle;whiteSpace=wrap;rounded=0;labelBackgroundColor=none;" vertex="1" parent="msttldhm7g2-u0YJvrAc-39">
          <mxGeometry x="10" y="25" width="60" height="30" as="geometry" />
        </mxCell>
        <mxCell id="msttldhm7g2-u0YJvrAc-54" value="Route table" style="swimlane;childLayout=stackLayout;resizeParent=1;resizeParentMax=0;startSize=20;labelBackgroundColor=none;strokeColor=#3399FF;fillColor=none;" vertex="1" parent="1">
          <mxGeometry x="589" y="649" width="190" height="120" as="geometry" />
        </mxCell>
        <mxCell id="msttldhm7g2-u0YJvrAc-55" value="network" style="swimlane;startSize=20;labelBackgroundColor=none;strokeColor=#3399FF;fillColor=none;" vertex="1" parent="msttldhm7g2-u0YJvrAc-54">
          <mxGeometry y="20" width="100" height="100" as="geometry">
            <mxRectangle y="20" width="30" height="460" as="alternateBounds" />
          </mxGeometry>
        </mxCell>
        <mxCell id="msttldhm7g2-u0YJvrAc-56" value="10.0.0.0/16" style="text;html=1;strokeColor=none;fillColor=none;align=center;verticalAlign=middle;whiteSpace=wrap;rounded=0;labelBackgroundColor=none;" vertex="1" parent="msttldhm7g2-u0YJvrAc-55">
          <mxGeometry x="20" y="25" width="60" height="30" as="geometry" />
        </mxCell>
        <mxCell id="msttldhm7g2-u0YJvrAc-57" value="next hop" style="swimlane;startSize=20;labelBackgroundColor=none;strokeColor=#3399FF;fillColor=none;" vertex="1" parent="msttldhm7g2-u0YJvrAc-54">
          <mxGeometry x="100" y="20" width="90" height="100" as="geometry" />
        </mxCell>
        <mxCell id="msttldhm7g2-u0YJvrAc-58" value="local" style="text;html=1;strokeColor=none;fillColor=none;align=center;verticalAlign=middle;whiteSpace=wrap;rounded=0;labelBackgroundColor=none;" vertex="1" parent="msttldhm7g2-u0YJvrAc-57">
          <mxGeometry x="10" y="25" width="60" height="30" as="geometry" />
        </mxCell>
        <mxCell id="msttldhm7g2-u0YJvrAc-59" value="0.0.0.0/0" style="text;html=1;strokeColor=none;fillColor=none;align=center;verticalAlign=middle;whiteSpace=wrap;rounded=0;labelBackgroundColor=none;" vertex="1" parent="1">
          <mxGeometry x="609" y="725" width="60" height="30" as="geometry" />
        </mxCell>
        <mxCell id="msttldhm7g2-u0YJvrAc-62" value="igw" style="text;html=1;strokeColor=none;fillColor=none;align=center;verticalAlign=middle;whiteSpace=wrap;rounded=0;labelBackgroundColor=none;" vertex="1" parent="1">
          <mxGeometry x="696" y="726" width="60" height="30" as="geometry" />
        </mxCell>
        <mxCell id="msttldhm7g2-u0YJvrAc-65" value="test_db_subnet_group" style="text;html=1;strokeColor=none;fillColor=none;align=center;verticalAlign=middle;whiteSpace=wrap;rounded=0;" vertex="1" parent="1">
          <mxGeometry x="1378" y="60" width="140" height="44" as="geometry" />
        </mxCell>
        <mxCell id="msttldhm7g2-u0YJvrAc-66" value="ALB setting" style="swimlane;childLayout=stackLayout;resizeParent=1;resizeParentMax=0;startSize=20;labelBackgroundColor=none;strokeColor=#FF00FF;fillColor=none;" vertex="1" parent="1">
          <mxGeometry x="144" y="566.5" width="290" height="110" as="geometry" />
        </mxCell>
        <mxCell id="msttldhm7g2-u0YJvrAc-67" value="listener" style="swimlane;startSize=20;labelBackgroundColor=none;strokeColor=#FF00FF;fillColor=none;" vertex="1" parent="msttldhm7g2-u0YJvrAc-66">
          <mxGeometry y="20" width="100" height="90" as="geometry">
            <mxRectangle y="20" width="30" height="460" as="alternateBounds" />
          </mxGeometry>
        </mxCell>
        <mxCell id="msttldhm7g2-u0YJvrAc-68" value="HTTP : 80" style="text;html=1;strokeColor=none;fillColor=none;align=center;verticalAlign=middle;whiteSpace=wrap;rounded=0;labelBackgroundColor=none;" vertex="1" parent="msttldhm7g2-u0YJvrAc-67">
          <mxGeometry x="-14" y="25" width="100" height="30" as="geometry" />
        </mxCell>
        <mxCell id="msttldhm7g2-u0YJvrAc-69" value="target" style="swimlane;startSize=20;labelBackgroundColor=none;strokeColor=#FF00FF;fillColor=none;" vertex="1" parent="msttldhm7g2-u0YJvrAc-66">
          <mxGeometry x="100" y="20" width="190" height="90" as="geometry" />
        </mxCell>
        <mxCell id="msttldhm7g2-u0YJvrAc-73" value="" style="rounded=0;whiteSpace=wrap;html=1;labelBackgroundColor=none;strokeColor=none;fillColor=none;" vertex="1" parent="msttldhm7g2-u0YJvrAc-69">
          <mxGeometry x="7" y="45" width="123" height="35" as="geometry" />
        </mxCell>
        <mxCell id="msttldhm7g2-u0YJvrAc-70" value="ec2_for_deploy : 80" style="text;html=1;strokeColor=none;fillColor=none;align=center;verticalAlign=middle;whiteSpace=wrap;rounded=0;labelBackgroundColor=none;" vertex="1" parent="msttldhm7g2-u0YJvrAc-69">
          <mxGeometry x="17" y="43" width="123" height="30" as="geometry" />
        </mxCell>
        <mxCell id="msttldhm7g2-u0YJvrAc-75" value="&lt;font color=&quot;#ff0000&quot;&gt;test_alb_target_group&amp;nbsp;&lt;/font&gt;" style="text;html=1;strokeColor=none;fillColor=none;align=center;verticalAlign=middle;whiteSpace=wrap;rounded=0;labelBackgroundColor=none;" vertex="1" parent="1">
          <mxGeometry x="251" y="607.5" width="123" height="30" as="geometry" />
        </mxCell>
        <mxCell id="msttldhm7g2-u0YJvrAc-76" value="HTTPS : 443" style="text;html=1;strokeColor=none;fillColor=none;align=center;verticalAlign=middle;whiteSpace=wrap;rounded=0;labelBackgroundColor=none;" vertex="1" parent="1">
          <mxGeometry x="148" y="637.5" width="77" height="30" as="geometry" />
        </mxCell>
        <mxCell id="msttldhm7g2-u0YJvrAc-87" value="permit traffic" style="swimlane;childLayout=stackLayout;resizeParent=1;resizeParentMax=0;startSize=20;labelBackgroundColor=none;strokeColor=#DD3522;fillColor=none;" vertex="1" parent="1">
          <mxGeometry x="597" y="325" width="190" height="120" as="geometry" />
        </mxCell>
        <mxCell id="msttldhm7g2-u0YJvrAc-88" value="inbound" style="swimlane;startSize=20;labelBackgroundColor=none;strokeColor=#DD3522;fillColor=none;" vertex="1" parent="msttldhm7g2-u0YJvrAc-87">
          <mxGeometry y="20" width="100" height="100" as="geometry">
            <mxRectangle y="20" width="30" height="460" as="alternateBounds" />
          </mxGeometry>
        </mxCell>
        <mxCell id="msttldhm7g2-u0YJvrAc-89" value="HTTP : 80" style="text;html=1;strokeColor=none;fillColor=none;align=center;verticalAlign=middle;whiteSpace=wrap;rounded=0;labelBackgroundColor=none;" vertex="1" parent="msttldhm7g2-u0YJvrAc-88">
          <mxGeometry x="20" y="25" width="60" height="30" as="geometry" />
        </mxCell>
        <mxCell id="msttldhm7g2-u0YJvrAc-90" value="outbound" style="swimlane;startSize=20;labelBackgroundColor=none;strokeColor=#DD3522;fillColor=none;" vertex="1" parent="msttldhm7g2-u0YJvrAc-87">
          <mxGeometry x="100" y="20" width="90" height="100" as="geometry" />
        </mxCell>
        <mxCell id="msttldhm7g2-u0YJvrAc-91" value="ALL" style="text;html=1;strokeColor=none;fillColor=none;align=center;verticalAlign=middle;whiteSpace=wrap;rounded=0;labelBackgroundColor=none;" vertex="1" parent="msttldhm7g2-u0YJvrAc-90">
          <mxGeometry x="10" y="25" width="60" height="30" as="geometry" />
        </mxCell>
        <mxCell id="msttldhm7g2-u0YJvrAc-92" value="SSH : 22" style="text;html=1;strokeColor=none;fillColor=none;align=center;verticalAlign=middle;whiteSpace=wrap;rounded=0;labelBackgroundColor=none;" vertex="1" parent="1">
          <mxGeometry x="617" y="401" width="60" height="30" as="geometry" />
        </mxCell>
        <mxCell id="msttldhm7g2-u0YJvrAc-94" value="docker port mapping" style="swimlane;childLayout=stackLayout;resizeParent=1;resizeParentMax=0;startSize=20;labelBackgroundColor=none;strokeColor=#7EA6E0;fillColor=none;" vertex="1" parent="1">
          <mxGeometry x="817" y="439" width="190" height="81" as="geometry" />
        </mxCell>
        <mxCell id="msttldhm7g2-u0YJvrAc-95" value="inbound" style="swimlane;startSize=20;labelBackgroundColor=none;strokeColor=#7EA6E0;fillColor=none;" vertex="1" parent="msttldhm7g2-u0YJvrAc-94">
          <mxGeometry y="20" width="100" height="61" as="geometry">
            <mxRectangle y="20" width="30" height="460" as="alternateBounds" />
          </mxGeometry>
        </mxCell>
        <mxCell id="msttldhm7g2-u0YJvrAc-96" value="80" style="text;html=1;strokeColor=none;fillColor=none;align=center;verticalAlign=middle;whiteSpace=wrap;rounded=0;labelBackgroundColor=none;" vertex="1" parent="msttldhm7g2-u0YJvrAc-95">
          <mxGeometry x="20" y="25" width="60" height="30" as="geometry" />
        </mxCell>
        <mxCell id="msttldhm7g2-u0YJvrAc-97" value="outbound" style="swimlane;startSize=20;labelBackgroundColor=none;strokeColor=#7EA6E0;fillColor=none;" vertex="1" parent="msttldhm7g2-u0YJvrAc-94">
          <mxGeometry x="100" y="20" width="90" height="61" as="geometry" />
        </mxCell>
        <mxCell id="msttldhm7g2-u0YJvrAc-98" value="80" style="text;html=1;strokeColor=none;fillColor=none;align=center;verticalAlign=middle;whiteSpace=wrap;rounded=0;labelBackgroundColor=none;" vertex="1" parent="msttldhm7g2-u0YJvrAc-97">
          <mxGeometry x="10" y="25" width="60" height="30" as="geometry" />
        </mxCell>
        <mxCell id="msttldhm7g2-u0YJvrAc-101" value="permit traffic" style="swimlane;childLayout=stackLayout;resizeParent=1;resizeParentMax=0;startSize=20;labelBackgroundColor=none;strokeColor=#DD3522;fillColor=none;" vertex="1" parent="1">
          <mxGeometry x="1659" y="256" width="190" height="80" as="geometry" />
        </mxCell>
        <mxCell id="msttldhm7g2-u0YJvrAc-102" value="inbound" style="swimlane;startSize=20;labelBackgroundColor=none;strokeColor=#DD3522;fillColor=none;" vertex="1" parent="msttldhm7g2-u0YJvrAc-101">
          <mxGeometry y="20" width="100" height="60" as="geometry">
            <mxRectangle y="20" width="30" height="460" as="alternateBounds" />
          </mxGeometry>
        </mxCell>
        <mxCell id="msttldhm7g2-u0YJvrAc-103" value="TCP : 3306" style="text;html=1;strokeColor=none;fillColor=none;align=center;verticalAlign=middle;whiteSpace=wrap;rounded=0;labelBackgroundColor=none;" vertex="1" parent="msttldhm7g2-u0YJvrAc-102">
          <mxGeometry x="10" y="25" width="80" height="30" as="geometry" />
        </mxCell>
        <mxCell id="msttldhm7g2-u0YJvrAc-104" value="outbound" style="swimlane;startSize=20;labelBackgroundColor=none;strokeColor=#DD3522;fillColor=none;" vertex="1" parent="msttldhm7g2-u0YJvrAc-101">
          <mxGeometry x="100" y="20" width="90" height="60" as="geometry" />
        </mxCell>
        <mxCell id="msttldhm7g2-u0YJvrAc-105" value="ALL" style="text;html=1;strokeColor=none;fillColor=none;align=center;verticalAlign=middle;whiteSpace=wrap;rounded=0;labelBackgroundColor=none;" vertex="1" parent="msttldhm7g2-u0YJvrAc-104">
          <mxGeometry x="10" y="25" width="60" height="30" as="geometry" />
        </mxCell>
        <mxCell id="msttldhm7g2-u0YJvrAc-108" value="permit traffic" style="swimlane;childLayout=stackLayout;resizeParent=1;resizeParentMax=0;startSize=20;labelBackgroundColor=none;strokeColor=#DD3522;fillColor=none;" vertex="1" parent="1">
          <mxGeometry x="134" y="334" width="290" height="110" as="geometry" />
        </mxCell>
        <mxCell id="msttldhm7g2-u0YJvrAc-109" value="inbound" style="swimlane;startSize=20;labelBackgroundColor=none;strokeColor=#DD3522;fillColor=none;" vertex="1" parent="msttldhm7g2-u0YJvrAc-108">
          <mxGeometry y="20" width="100" height="90" as="geometry">
            <mxRectangle y="20" width="30" height="460" as="alternateBounds" />
          </mxGeometry>
        </mxCell>
        <mxCell id="msttldhm7g2-u0YJvrAc-110" value="HTTP : 80" style="text;html=1;strokeColor=none;fillColor=none;align=center;verticalAlign=middle;whiteSpace=wrap;rounded=0;labelBackgroundColor=none;" vertex="1" parent="msttldhm7g2-u0YJvrAc-109">
          <mxGeometry x="-14" y="25" width="100" height="30" as="geometry" />
        </mxCell>
        <mxCell id="msttldhm7g2-u0YJvrAc-111" value="outbound" style="swimlane;startSize=20;labelBackgroundColor=none;strokeColor=#DD3522;fillColor=none;" vertex="1" parent="msttldhm7g2-u0YJvrAc-108">
          <mxGeometry x="100" y="20" width="190" height="90" as="geometry" />
        </mxCell>
        <mxCell id="msttldhm7g2-u0YJvrAc-116" value="HTTP : 80" style="text;html=1;strokeColor=none;fillColor=none;align=center;verticalAlign=middle;whiteSpace=wrap;rounded=0;labelBackgroundColor=none;" vertex="1" parent="msttldhm7g2-u0YJvrAc-111">
          <mxGeometry x="-5" y="25" width="100" height="30" as="geometry" />
        </mxCell>
        <mxCell id="msttldhm7g2-u0YJvrAc-115" value="HTTPS : 443" style="text;html=1;strokeColor=none;fillColor=none;align=center;verticalAlign=middle;whiteSpace=wrap;rounded=0;labelBackgroundColor=none;" vertex="1" parent="1">
          <mxGeometry x="138" y="405" width="77" height="30" as="geometry" />
        </mxCell>
        <mxCell id="msttldhm7g2-u0YJvrAc-119" value="" style="rounded=0;whiteSpace=wrap;html=1;labelBackgroundColor=none;fontColor=#FF0000;strokeColor=#FF0000;fillColor=none;" vertex="1" parent="1">
          <mxGeometry x="248" y="612.5" width="147" height="54" as="geometry" />
        </mxCell>
        <mxCell id="msttldhm7g2-u0YJvrAc-121" value="" style="outlineConnect=0;dashed=0;verticalLabelPosition=bottom;verticalAlign=top;align=center;html=1;shape=mxgraph.aws3.rds;fillColor=#2E73B8;gradientColor=none;labelBackgroundColor=none;fontColor=#FF0000;strokeColor=#FF0000;" vertex="1" parent="1">
          <mxGeometry x="1880" y="350" width="110" height="114" as="geometry" />
        </mxCell>
        <mxCell id="msttldhm7g2-u0YJvrAc-122" value="" style="outlineConnect=0;dashed=0;verticalLabelPosition=bottom;verticalAlign=top;align=center;html=1;shape=mxgraph.aws3.route_53;fillColor=#F58536;gradientColor=none;labelBackgroundColor=none;fontColor=#FF0000;strokeColor=#FF0000;" vertex="1" parent="1">
          <mxGeometry x="110" y="93" width="120" height="123" as="geometry" />
        </mxCell>
        <mxCell id="msttldhm7g2-u0YJvrAc-123" value="" style="sketch=0;aspect=fixed;html=1;points=[];align=center;image;fontSize=12;image=img/lib/mscae/DNS.svg;labelBackgroundColor=none;fontColor=#FF0000;strokeColor=#FF0000;fillColor=none;" vertex="1" parent="1">
          <mxGeometry x="-500" y="72" width="164" height="164" as="geometry" />
        </mxCell>
        <mxCell id="msttldhm7g2-u0YJvrAc-124" value="" style="sketch=0;points=[[0,0,0],[0.25,0,0],[0.5,0,0],[0.75,0,0],[1,0,0],[0,1,0],[0.25,1,0],[0.5,1,0],[0.75,1,0],[1,1,0],[0,0.25,0],[0,0.5,0],[0,0.75,0],[1,0.25,0],[1,0.5,0],[1,0.75,0]];outlineConnect=0;fontColor=#232F3E;gradientColor=#F54749;gradientDirection=north;fillColor=#C7131F;strokeColor=#ffffff;dashed=0;verticalLabelPosition=bottom;verticalAlign=top;align=center;html=1;fontSize=12;fontStyle=0;aspect=fixed;shape=mxgraph.aws4.resourceIcon;resIcon=mxgraph.aws4.certificate_manager_3;labelBackgroundColor=none;" vertex="1" parent="1">
          <mxGeometry x="413" y="96" width="117" height="117" as="geometry" />
        </mxCell>
        <mxCell id="msttldhm7g2-u0YJvrAc-125" value="" style="outlineConnect=0;dashed=0;verticalLabelPosition=bottom;verticalAlign=top;align=center;html=1;shape=mxgraph.aws3.certificate;fillColor=#5294CF;gradientColor=none;labelBackgroundColor=none;fontColor=#FF0000;strokeColor=#FF0000;" vertex="1" parent="1">
          <mxGeometry x="218.5" y="448" width="63" height="85.5" as="geometry" />
        </mxCell>
        <mxCell id="msttldhm7g2-u0YJvrAc-127" value="" style="endArrow=classic;html=1;rounded=0;fontColor=#FF0000;exitX=0;exitY=0.5;exitDx=0;exitDy=0;exitPerimeter=0;" edge="1" parent="1" source="msttldhm7g2-u0YJvrAc-124" target="msttldhm7g2-u0YJvrAc-122">
          <mxGeometry width="50" height="50" relative="1" as="geometry">
            <mxPoint x="260" y="123" as="sourcePoint" />
            <mxPoint x="310" y="73" as="targetPoint" />
          </mxGeometry>
        </mxCell>
        <mxCell id="msttldhm7g2-u0YJvrAc-128" value="dns cname key" style="text;html=1;strokeColor=none;fillColor=none;align=center;verticalAlign=middle;whiteSpace=wrap;rounded=0;labelBackgroundColor=none;" vertex="1" parent="1">
          <mxGeometry x="250" y="162" width="140" height="30" as="geometry" />
        </mxCell>
        <mxCell id="msttldhm7g2-u0YJvrAc-138" value="dns authenticattion" style="text;html=1;strokeColor=none;fillColor=none;align=center;verticalAlign=middle;whiteSpace=wrap;rounded=0;labelBackgroundColor=none;" vertex="1" parent="1">
          <mxGeometry x="-165.57999999999998" y="157.5" width="140" height="30" as="geometry" />
        </mxCell>
        <mxCell id="msttldhm7g2-u0YJvrAc-139" value="ssl certificate" style="text;html=1;strokeColor=none;fillColor=none;align=center;verticalAlign=middle;whiteSpace=wrap;rounded=0;labelBackgroundColor=none;" vertex="1" parent="1">
          <mxGeometry x="350" y="246.5" width="140" height="30" as="geometry" />
        </mxCell>
        <mxCell id="msttldhm7g2-u0YJvrAc-146" value="" style="shape=image;html=1;verticalAlign=top;verticalLabelPosition=bottom;labelBackgroundColor=#ffffff;imageAspect=0;aspect=fixed;image=https://cdn4.iconfinder.com/data/icons/essential-app-1/16/lock-security-pad-key-128.png;fontColor=#FF0000;strokeColor=#FF0000;fillColor=none;" vertex="1" parent="1">
          <mxGeometry x="215" y="180" width="62" height="62" as="geometry" />
        </mxCell>
        <mxCell id="msttldhm7g2-u0YJvrAc-147" value="" style="shape=image;html=1;verticalAlign=top;verticalLabelPosition=bottom;labelBackgroundColor=#ffffff;imageAspect=0;aspect=fixed;image=https://cdn4.iconfinder.com/data/icons/essential-app-1/16/key-password-passcode-access-128.png;fontColor=#FF0000;strokeColor=#FF0000;fillColor=none;" vertex="1" parent="1">
          <mxGeometry x="-310" y="178" width="52" height="52" as="geometry" />
        </mxCell>
        <mxCell id="msttldhm7g2-u0YJvrAc-149" value="" style="endArrow=classic;startArrow=classic;html=1;rounded=0;fontColor=#FF0000;entryX=0.29;entryY=0.5;entryDx=0;entryDy=0;entryPerimeter=0;" edge="1" parent="1" target="msttldhm7g2-u0YJvrAc-122">
          <mxGeometry width="50" height="50" relative="1" as="geometry">
            <mxPoint x="-340" y="155" as="sourcePoint" />
            <mxPoint x="50" y="390" as="targetPoint" />
          </mxGeometry>
        </mxCell>
        <mxCell id="msttldhm7g2-u0YJvrAc-150" value="users" style="sketch=0;outlineConnect=0;gradientColor=none;fontColor=#545B64;strokeColor=none;fillColor=#879196;dashed=0;verticalLabelPosition=bottom;verticalAlign=top;align=center;html=1;fontSize=12;fontStyle=0;aspect=fixed;shape=mxgraph.aws4.illustration_users;pointerEvents=1;labelBackgroundColor=none;" vertex="1" parent="1">
          <mxGeometry x="-468" y="469.5" width="100" height="100" as="geometry" />
        </mxCell>
        <mxCell id="msttldhm7g2-u0YJvrAc-155" value="" style="edgeStyle=segmentEdgeStyle;endArrow=classic;html=1;rounded=0;fontColor=#FF0000;exitX=0.5;exitY=1;exitDx=0;exitDy=0;exitPerimeter=0;" edge="1" parent="1" source="msttldhm7g2-u0YJvrAc-124">
          <mxGeometry width="50" height="50" relative="1" as="geometry">
            <mxPoint x="350" y="500" as="sourcePoint" />
            <mxPoint x="280" y="487" as="targetPoint" />
            <Array as="points">
              <mxPoint x="471" y="487" />
            </Array>
          </mxGeometry>
        </mxCell>
        <mxCell id="msttldhm7g2-u0YJvrAc-156" value="" style="endArrow=classic;startArrow=classic;html=1;rounded=0;fontColor=#FF0000;exitX=0.855;exitY=0.855;exitDx=0;exitDy=0;exitPerimeter=0;" edge="1" parent="1">
          <mxGeometry width="50" height="50" relative="1" as="geometry">
            <mxPoint x="235.09500000000025" y="539.53" as="sourcePoint" />
            <mxPoint x="800" y="540" as="targetPoint" />
          </mxGeometry>
        </mxCell>
        <mxCell id="msttldhm7g2-u0YJvrAc-158" value="" style="endArrow=classic;startArrow=classic;html=1;rounded=0;fontColor=#FF0000;" edge="1" parent="1" source="msttldhm7g2-u0YJvrAc-150" target="msttldhm7g2-u0YJvrAc-16">
          <mxGeometry width="50" height="50" relative="1" as="geometry">
            <mxPoint x="-210" y="530" as="sourcePoint" />
            <mxPoint x="-160" y="480" as="targetPoint" />
          </mxGeometry>
        </mxCell>
        <mxCell id="msttldhm7g2-u0YJvrAc-159" value="" style="shape=actor;whiteSpace=wrap;html=1;labelBackgroundColor=none;fontColor=#FF0000;strokeColor=#330000;fillColor=none;" vertex="1" parent="1">
          <mxGeometry x="-430" y="730" width="40" height="60" as="geometry" />
        </mxCell>
        <mxCell id="msttldhm7g2-u0YJvrAc-160" style="edgeStyle=orthogonalEdgeStyle;rounded=0;orthogonalLoop=1;jettySize=auto;html=1;exitX=0.75;exitY=0.25;exitDx=0;exitDy=0;exitPerimeter=0;entryX=0.5;entryY=0;entryDx=0;entryDy=0;fontColor=#FF0000;" edge="1" parent="1" source="msttldhm7g2-u0YJvrAc-159" target="msttldhm7g2-u0YJvrAc-159">
          <mxGeometry relative="1" as="geometry" />
        </mxCell>
      </root>
    </mxGraphModel>
  </diagram>
</mxfile>
